<?xml version="1.0" encoding="UTF-8"?>
<svg width="205.8" height="50.586" version="1.1" viewBox="0 0 54.451 13.384" xmlns="http://www.w3.org/2000/svg">
 <style>
  .text-path { fill: #354450; }
  @media (prefers-color-scheme: dark) {
   .text-path { fill: #ffffff; }
  }
 </style>
 <g stroke-width=".13229">
  <path d="m50.834 2.7057c-0.60771 0-1.0201 0.39067-1.0201 1.0635v5.9035c0 0.70176 0.41961 1.0997 1.0563 1.0997 0.64388 0 1.0563-0.39791 1.0563-1.0997v-3.4437c0-0.9188 0.34003-1.4614 1.3022-1.4759 0.41237-0.00723 0.71623-0.10129 0.9188-0.27492 0.20257-0.17363 0.30386-0.42684 0.30386-0.75964 0-0.36173-0.10128-0.62218-0.30386-0.78134-0.15193-0.13022-0.3762-0.19534-0.65835-0.19534-0.7741 0-1.4108 0.57154-1.6133 1.5337h-0.04341v-0.50642c0-0.67282-0.40514-1.0635-0.99838-1.0635z" class="text-path"/>
  <path d="m35.958 2.7057c-0.60047 0-1.0563 0.3762-1.0563 0.94774 0 0.21704 0.05064 0.44131 0.11575 0.62941l2.0185 5.4115c0.28215 0.7524 0.71623 1.078 1.5265 1.078 0.76687 0 1.2082-0.3328 1.4759-1.078l2.0185-5.4549c0.06511-0.18087 0.11575-0.39791 0.11575-0.59324 0-0.53536-0.44131-0.9405-1.0273-0.9405-0.49195 0-0.84645 0.26768-0.99114 0.82475l-1.5699 5.2234h-0.04341l-1.5699-5.2017c-0.15916-0.57153-0.49919-0.84645-1.0128-0.84645z" class="text-path"/>
  <path d="m10.682 2.7057c-0.60771 0-1.0418 0.3762-1.0418 1.0852v8.4935c0 0.72346 0.44131 1.0997 1.0563 1.0997 0.62218 0 1.0563-0.3762 1.0563-1.0997v-2.9662h0.04341c0.41237 0.87539 1.2805 1.4252 2.4091 1.4252 1.9389 0 3.1398-1.5048 3.1398-4.0008 0-2.5032-1.2082-4.0008-3.176-4.0008-1.1214 0-1.9823 0.5643-2.4019 1.4759h-0.04341v-0.41961c0-0.71623-0.43408-1.0924-1.0418-1.0924zm2.7781 1.7291c1.0563 0 1.7218 0.90433 1.7218 2.3078 0 1.4108-0.66559 2.3006-1.7218 2.3006-1.0346 0-1.7146-0.8971-1.7146-2.3006 0-1.389 0.68006-2.3078 1.7146-2.3078z" fill="#11b790"/>
  <path d="m45.715 2.6985c-2.2934 0-3.7475 1.5844-3.7475 4.0803 0 2.5104 1.4252 4.008 3.8488 4.008 1.4976 0 2.6985-0.5643 3.2122-1.5193 0.09405-0.17363 0.14469-0.34726 0.14469-0.51366 0-0.48472-0.36897-0.77411-0.82475-0.77411-0.27492 0-0.46302 0.079582-0.68729 0.31109-0.57154 0.67282-1.078 0.93327-1.8521 0.93327-1.0707 0-1.7652-0.7524-1.7652-1.9027v-0.09405h4.4276c0.586 0 0.9188-0.33279 0.9188-0.9188 0-2.1053-1.4759-3.6101-3.6752-3.6101zm0.0217 1.5627c0.92603 0 1.5772 0.65835 1.6206 1.6712h-3.2918c0.07235-0.99114 0.74517-1.6712 1.6712-1.6712z" class="text-path"/>
  <path d="m31.223 2.6985c-2.3223 0-3.8416 1.5265-3.8416 4.0369 0 2.5466 1.4976 4.0514 3.8416 4.0514 2.344 0 3.8416-1.4976 3.8416-4.0514 0-2.5176-1.5193-4.0369-3.8416-4.0369zm0 1.6133c1.0273 0 1.6929 0.88986 1.6929 2.4308 0 1.5554-0.65835 2.4308-1.6929 2.4308-1.0418 0-1.7001-0.87539-1.7001-2.4308 0-1.541 0.67282-2.4308 1.7001-2.4308z" class="text-path"/>
  <path d="m1.0924 0.03613c-0.68729 0-1.0924 0.41961-1.0924 1.1431v5.7515c0 2.3006 1.7001 3.8633 4.377 3.8633 2.6696 0 4.3697-1.5627 4.3697-3.8633v-5.7515c0-0.72346-0.40514-1.1431-1.0924-1.1431s-1.0924 0.41961-1.0924 1.1431v5.5345c0 1.3384-0.78858 2.2138-2.1849 2.2138-1.4035 0-2.1921-0.87539-2.1921-2.2138v-5.5345c0-0.72346-0.40514-1.1431-1.0924-1.1431z" fill="#11b790"/>
  <path d="m22.544-4.2854e-5c-3.0024 0-4.9196 2.0329-4.9196 5.397 0 3.3713 1.881 5.397 4.9774 5.397 1.9751 0 3.5305-0.88986 4.1816-2.3368 0.10852-0.25321 0.1664-0.48472 0.1664-0.7307 0-0.57877-0.40514-0.96944-1.0201-0.96944-0.46302 0-0.73793 0.19534-0.96221 0.68729-0.47025 1.049-1.295 1.5482-2.3947 1.5482-1.6712 0-2.7202-1.3746-2.7202-3.6028 0-2.1993 1.0635-3.5811 2.713-3.5811 1.0418 0 1.8955 0.53536 2.373 1.5989 0.23874 0.50642 0.54983 0.72346 1.0418 0.72346 0.57877 0 0.96221-0.36897 0.96221-0.9405 0-0.26045-0.07235-0.5426-0.21704-0.81751-0.71623-1.5048-2.2283-2.373-4.1816-2.373z" class="text-path"/>
 </g>
</svg>
